<svg viewBox="-27 24 100 100" xmlns="http://www.w3.org/2000/svg" xmlns:xlink="http://www.w3.org/1999/xlink">
	<path fill="#F5EEE5" d="M-27 24H73v100H-27z" />
	<path d="M38 99.9l27.9 7.7c3.2 1.1 5.7 3.5 7.1 6.6v9.8H-27v-9.8c1.3-3.1 3.9-5.5 7.1-6.6L8 99.9V85h30v14.9z"
		fill="#E6C19C" />
	<defs>
		<path d="M38 99.9l27.9 7.7c3.2 1.1 5.7 3.5 7.1 6.6v9.8H-27v-9.8c1.3-3.1 3.9-5.5 7.1-6.6L8 99.9V85h30v14.9z"
			id="prefix__a" />
	</defs>
	<clipPath id="prefix__b">
		<use overflow="visible" xlink:href="#prefix__a" />
	</clipPath>
	<path clip-path="url(#prefix__b)"
		d="M-27 82H73v42H-27V82zm50 30c11 0 20-6.3 20-14s-9-14-20-14S3 90.3 3 98s9 14 20 14z" fill="#E6A422" />
	<path clip-path="url(#prefix__b)"
		d="M23 102c-1.7 0-3.9-.4-5.4-1.1-1.7-.9-8-6.1-10.2-8.3-2.8-3-4.2-6.8-4.6-13.3-.4-6.5-2.1-29.7-2.1-35 0-7.5 5.7-19.2 22.1-19.2h.2c16.5.1 22.1 11.7 22.1 19.2 0 5.3-1.7 28.5-2.1 35-.4 6.5-1.8 10.2-4.6 13.3-2.1 2.3-8.4 7.4-10.2 8.3-1.3.7-3.5 1.1-5.2 1.1z"
		fill="#D4B08C" />
	<path clip-path="url(#prefix__b)"
		d="M23 82C10.3 82 0 89.4 0 98.5S10.3 115 23 115s23-7.4 23-16.5S35.7 82 23 82zm0 29c-10.5 0-19-6-19-13.5S12.5 84 23 84s19 6 19 13.5S33.5 111 23 111z"
		fill="#D98C21" />
	<path
		d="M23 98c-1.5 0-3.5-.3-4.8-.9-1.6-.7-7.2-4.6-9.1-6.3-2.5-2.3-3.8-5.1-4.2-10S3 58.5 3 54.5C3 48.8 8.1 40 23 40s20 8.8 20 14.5c0 4-1.5 21.5-1.9 26.4s-1.6 7.7-4.2 10c-1.9 1.7-7.6 5.6-9.1 6.3-1.3.5-3.3.8-4.8.8z"
		fill="#F2CEA5" />
	<path d="M30 85.5c-1.9 2-5.2 3-8.1 2.4-2.7-.6-4.7-2-5.7-4.3L30 85.5z" fill="#A3705F" />
	<path
		d="M23.7 88.6c-.6 0-1.3-.1-1.9-.2-3-.6-5.1-2.2-6.1-4.6-.1-.2 0-.4.1-.5.1-.1.3-.2.5-.2l13.8 2c.2 0 .3.2.4.3.1.2 0 .4-.1.5-1.5 1.6-4.1 2.7-6.7 2.7zm-6.6-4.4c1 1.6 2.7 2.7 4.9 3.2.5.1 1.1.2 1.7.2 1.9 0 3.9-.6 5.2-1.7l-11.8-1.7z"
		fill="#A3705F" />
	<defs>
		<path id="prefix__c" d="M7 65h31v5H7z" />
	</defs>
	<clipPath id="prefix__d">
		<use overflow="visible" xlink:href="#prefix__c" />
	</clipPath>
	<circle clip-path="url(#prefix__d)" cx="32" cy="69" fill="#291F21" r="2" />
	<circle clip-path="url(#prefix__d)" cx="14" cy="69" fill="#291F21" r="2" />
	<path
		d="M19.6 66.5c-.5-.7-2-2.5-5.6-2.5-4.1 0-5.1 2.3-5.1 2.4L7 65.7c.1-.1 1.4-3.6 7-3.6 4.6 0 6.6 2.4 7.2 3.5l-1.6.9z"
		fill="#CC9872" />
	<path d="M24 77v-9c0-2.5 2.5-5.9 8-6 5.5 0 6.9 3.5 7 3.6l-1.9.7c0-.1-1-2.3-5.1-2.4-4.1 0-6 2.4-6 4v9l-2 .1z"
		fill="#BB8660" />
	<path
		d="M41.8 72.2s.8-6.3 3.7-7.2c.4-1.8 1.5-7 1.5-9.9s-.3-5.7-1.9-8.1c-1.8-2.6-5.6-4.1-7.6-4.1-2.3 1.4-7.7 4.6-9.4 6.5-.9 1 .4 1.8.4 1.8s1.2-.5 1.7-.6c2.5-.7 8-1.2 9.7 1.3C42 54.9 42 63.7 42 65c0 1.2-.2 7.2-.2 7.2z"
		fill="#452228" />
	<path
		d="M.5 65c2.9 1 3.7 7.2 3.7 7.2S4 66.2 4 65c0-1.6.2-9.1 3.4-12.7 3.6-4 8.4-5.3 11.1-3.5 1.4.9 6.1 5.5 11.1 1.7 3-2.3 8.5-7.5 8.5-7.5s-2.9-8.9-16.1-7.9c-5.6.5-11.8-.9-11.8-.9s-.1 2.5.9 3.8C2.8 40.4.1 46.4-.7 51c-.2.9-.3 1.8-.3 2.7v1.4C-1 58 .1 63.1.5 65z"
		fill="#6B363E" />
</svg>